<?xml version="1.0" standalone="no"?>
<!DOCTYPE svg PUBLIC "-//W3C//DTD SVG 20010904//EN"
 "http://www.w3.org/TR/2001/REC-SVG-20010904/DTD/svg10.dtd">
<svg version="1.0" xmlns="http://www.w3.org/2000/svg"
 width="868.000000pt" height="248.000000pt" viewBox="0 0 868.000000 248.000000"
 preserveAspectRatio="xMidYMid meet">

<g transform="translate(0.000000,248.000000) scale(0.100000,-0.100000)"
fill="#000000" stroke="none">
<path d="M468 2261 c-76 -25 -118 -52 -176 -116 -60 -65 -88 -123 -102 -207
-13 -83 -13 -1017 0 -1088 18 -96 54 -156 153 -257 103 -106 155 -146 231
-176 47 -19 77 -21 419 -25 202 -2 367 -7 367 -10 1 -4 2 -75 3 -159 l2 -152
34 -35 35 -36 100 0 101 0 82 63 c45 34 144 109 220 167 76 57 140 107 143
110 3 3 19 16 37 28 l31 22 3014 0 c1862 0 3035 4 3071 10 156 25 287 138 332
286 22 73 22 1118 0 1182 -29 82 -55 121 -141 211 -106 111 -160 152 -242 180
l-62 21 -3798 -1 c-3637 0 -3799 -1 -3854 -18z m7631 -61 c35 -6 84 -21 110
-35 57 -29 126 -101 154 -163 22 -46 22 -59 25 -562 3 -360 0 -535 -8 -582
-14 -81 -53 -144 -121 -198 -97 -76 204 -70 -3200 -72 l-3056 -3 -94 -71 c-52
-40 -174 -133 -273 -208 -98 -75 -182 -136 -187 -136 -5 0 -9 90 -9 199 0 149
-3 202 -12 208 -7 4 -220 10 -473 13 l-460 5 -50 27 c-63 34 -93 62 -131 118
-55 80 -55 88 -52 680 3 532 4 546 24 590 45 96 150 173 259 190 79 12 7478
12 7554 0z"/>
<path d="M950 1835 l0 -45 -45 0 -45 0 0 -45 0 -45 -45 0 -46 0 3 -132 3 -133
42 -3 c42 -3 42 -3 45 -45 3 -42 3 -42 45 -45 42 -3 42 -3 45 -45 3 -42 3 -42
46 -45 42 -3 42 -3 42 -42 0 -39 0 -39 43 -42 42 -3 42 -3 45 -45 3 -40 5 -43
33 -44 16 -1 35 -2 42 -3 7 0 13 -19 15 -43 3 -42 3 -42 45 -45 42 -3 42 -3
45 -46 l3 -43 42 3 c42 3 42 3 45 45 3 42 3 42 45 45 42 3 42 3 45 46 3 42 3
42 42 42 39 0 39 0 42 43 3 42 3 42 46 45 35 3 42 7 43 25 1 12 2 29 3 37 1
10 15 17 41 20 39 5 40 6 43 47 3 42 3 42 45 45 42 3 42 3 45 45 3 42 3 42 45
45 l42 3 3 132 3 132 -43 3 c-43 3 -43 3 -46 45 -3 42 -3 42 -45 45 -42 3 -42
3 -45 46 l-3 42 -129 0 -129 0 -3 -42 c-3 -43 -3 -43 -45 -46 -42 -3 -42 -3
-45 -45 -3 -42 -3 -42 -45 -45 l-42 -3 -3 43 c-3 43 -3 43 -45 46 -42 3 -42 3
-45 45 l-3 42 -132 3 -133 3 0 -46z"/>
<path d="M2420 1400 l0 -240 205 0 205 0 0 35 0 35 -135 0 -135 0 0 205 0 205
-70 0 -70 0 0 -240z"/>
<path d="M2860 1400 l0 -240 241 0 240 0 -3 33 -3 32 -170 5 -170 5 0 65 0 65
138 3 137 3 0 34 0 35 -140 0 -141 0 3 63 3 62 170 5 170 5 3 33 3 32 -240 0
-241 0 0 -240z"/>
<path d="M3432 1608 l3 -33 68 -3 67 -3 0 -205 0 -205 68 3 67 3 3 203 2 202
65 0 c36 0 66 3 66 8 1 4 2 18 3 32 l1 25 -208 3 -208 2 3 -32z"/>
<path d="M3945 1628 c-2 -7 -6 -38 -7 -68 -3 -54 -4 -55 -35 -58 -29 -3 -33
-7 -33 -33 l0 -29 70 0 70 0 0 30 c0 30 2 31 50 34 11 1 16 17 18 69 l3 67
-66 0 c-43 0 -67 -4 -70 -12z"/>
<path d="M4188 1608 c-3 -29 -7 -33 -35 -36 l-33 -3 0 -64 0 -64 33 -3 c28 -3
32 -7 35 -35 l3 -32 137 -3 137 -3 0 -65 0 -65 -65 -5 c-36 -3 -82 -3 -102 -2
-33 4 -37 7 -40 35 l-3 32 -65 0 -65 0 -3 -32 c-3 -29 -1 -32 30 -35 29 -3 33
-7 36 -35 l3 -33 169 0 168 0 6 35 c6 30 11 35 35 35 35 0 38 9 33 82 -4 56
-5 57 -35 60 -25 2 -32 8 -33 26 -1 12 -2 27 -3 33 -1 7 -35 10 -103 9 -57 -1
-118 -2 -135 -1 l-33 1 0 64 0 63 38 5 c20 3 52 3 70 1 27 -5 32 -9 32 -33 0
-33 16 -41 78 -38 28 1 46 7 51 17 15 31 7 46 -26 49 -30 3 -33 6 -33 38 l0
34 -139 0 -140 0 -3 -32z"/>
<path d="M5048 1608 c-3 -29 -7 -33 -35 -36 l-33 -3 0 -65 0 -64 35 0 c33 0
35 -2 35 -35 l0 -34 138 -3 137 -3 0 -65 0 -65 -102 -3 -103 -3 0 36 0 36 -67
-3 -68 -3 -3 -32 c-3 -32 -2 -33 32 -33 34 0 36 -2 36 -35 l0 -35 173 2 172 3
3 33 c3 28 7 32 33 32 l29 0 0 70 0 70 -29 0 c-26 0 -30 4 -33 33 l-3 32 -137
3 -138 3 0 64 0 65 69 0 70 0 3 -32 c3 -33 4 -33 58 -34 72 -1 80 2 80 37 0
26 -3 29 -35 29 -33 0 -35 2 -35 35 l0 35 -139 0 -140 0 -3 -32z"/>
<path d="M5602 1608 l3 -33 68 -3 67 -3 0 -204 0 -205 70 0 70 0 0 205 0 204
68 3 67 3 3 33 3 32 -211 0 -211 0 3 -32z"/>
<path d="M6222 1608 c3 -31 1 -33 -32 -38 -30 -4 -36 -9 -40 -36 -4 -25 -10
-30 -28 -29 -13 1 -25 -2 -28 -6 -3 -5 -5 -82 -5 -171 l0 -163 65 -3 c58 -3
66 -1 67 15 0 10 1 41 2 68 l2 50 100 0 100 0 3 -67 3 -68 69 0 70 0 0 170 c0
106 -4 170 -10 171 -5 1 -20 2 -32 3 -18 1 -24 8 -26 33 -3 28 -7 32 -35 35
-28 3 -32 7 -35 36 l-3 32 -105 0 -106 0 4 -32z m140 -70 c2 -25 8 -33 23 -34
11 -1 26 -2 33 -3 8 -1 12 -21 12 -66 l0 -65 -105 0 -105 0 0 65 c0 68 -2 66
50 69 9 1 16 13 18 34 3 29 6 32 37 32 31 0 34 -3 37 -32z"/>
<path d="M6640 1400 l0 -241 68 3 67 3 3 68 3 68 32 -3 c28 -3 32 -7 32 -33 1
-26 5 -30 32 -33 28 -3 32 -7 35 -35 l3 -32 103 -3 102 -3 0 36 c0 33 -2 35
-35 35 -33 0 -35 2 -35 35 0 33 -2 35 -36 35 -34 0 -35 1 -32 33 l3 32 68 3
67 3 0 99 0 99 -32 3 c-29 3 -33 7 -36 36 l-3 32 -205 0 -204 0 0 -240z m340
106 l0 -65 -32 -3 c-29 -3 -33 -7 -36 -35 l-3 -33 -65 0 -64 0 0 100 0 100
100 0 100 0 0 -64z"/>
<path d="M7260 1605 l0 -35 70 0 70 0 0 -205 0 -206 68 3 67 3 3 203 2 202 65
0 65 0 0 35 0 35 -205 0 -205 0 0 -35z"/>
</g>
</svg>
